<svg width="26" height="13" viewBox="0 0 26 13" fill="none" xmlns="http://www.w3.org/2000/svg">
<path d="M25.7692 5.78749C25.9161 5.92812 26.0004 6.12501 26.0004 6.33128C26.0004 6.53754 25.9161 6.73131 25.7692 6.87507L20.2688 12.1254C19.9688 12.413 19.4937 12.4005 19.2093 12.1004C18.9249 11.8004 18.9343 11.3254 19.2343 11.041L23.3784 7.08133H1.12408C0.708423 7.08133 0.374023 6.74693 0.374023 6.33128C0.374023 5.91562 0.708423 5.58122 1.12408 5.58122H23.3784L19.2312 1.62469C18.9312 1.33717 18.9218 0.86526 19.2062 0.565239C19.4906 0.265218 19.9656 0.255842 20.2656 0.540237L25.766 5.79062L25.7692 5.78749Z" fill="white"/>
</svg>
