<svg width="56" height="13" viewBox="0 0 56 13" fill="none" xmlns="http://www.w3.org/2000/svg">
<path d="M55.558 6.08632C55.7049 6.22695 55.7893 6.42384 55.7893 6.63011C55.7893 6.83637 55.7049 7.03014 55.558 7.1739L50.0576 12.4243C49.7576 12.7118 49.2825 12.6993 48.9981 12.3993C48.7137 12.0992 48.7231 11.6242 49.0231 11.3398L53.1672 7.38016H0.912896C0.497241 7.38016 0.162842 7.04576 0.162842 6.63011C0.162842 6.21445 0.497241 5.88005 0.912896 5.88005H53.1672L49.02 1.92352C48.72 1.636 48.7106 1.16409 48.995 0.864067C49.2794 0.564046 49.7544 0.55467 50.0545 0.839066L55.5549 6.08944L55.558 6.08632Z" fill="white"/>
</svg>
